<?xml version="1.0" standalone="no"?>
<!DOCTYPE svg PUBLIC "-//W3C//DTD SVG 20010904//EN"
 "http://www.w3.org/TR/2001/REC-SVG-20010904/DTD/svg10.dtd">
<svg version="1.0" xmlns="http://www.w3.org/2000/svg"
 width="1560.000000pt" height="1560.000000pt" viewBox="0 0 1560.000000 1560.000000"
 preserveAspectRatio="xMidYMid meet">
<metadata>
Created by potrace 1.11, written by Peter Selinger 2001-2013
</metadata>
<g transform="translate(0.000000,1560.000000) scale(0.100000,-0.100000)"
fill="#000000" stroke="none">
<path d="M1269 12396 c-2 -2 -29 -6 -60 -9 -30 -4 -62 -9 -70 -11 -8 -3 -25
-7 -39 -10 -46 -8 -147 -36 -186 -52 -62 -25 -198 -88 -209 -97 -5 -4 -39 -27
-75 -50 -36 -23 -69 -45 -75 -49 -46 -37 -107 -92 -151 -136 -91 -94 -104
-108 -104 -120 0 -7 -3 -12 -7 -12 -5 0 -19 -17 -33 -37 -14 -20 -31 -43 -38
-50 -7 -7 -11 -13 -8 -13 4 0 -5 -17 -18 -38 -43 -69 -84 -157 -116 -252 -18
-52 -35 -102 -38 -110 -3 -8 -6 -24 -7 -35 -1 -11 -5 -33 -8 -50 -4 -16 -10
-48 -14 -70 -9 -50 -9 -336 1 -390 4 -22 8 -49 10 -60 3 -16 15 -76 21 -105 7
-30 30 -97 37 -104 4 -6 8 -15 8 -22 0 -6 10 -33 22 -60 12 -27 23 -51 23 -54
2 -10 58 -115 64 -120 3 -3 12 -17 20 -32 8 -15 22 -37 33 -47 10 -11 18 -25
18 -30 0 -5 12 -19 26 -30 15 -12 24 -21 20 -21 -14 0 129 -148 183 -190 18
-14 44 -35 57 -47 12 -13 26 -23 29 -23 4 0 21 -11 39 -25 50 -38 216 -121
309 -154 177 -62 374 -90 555 -78 31 2 52 -1 52 -8 0 -7 3 -7 8 0 4 6 23 10
42 8 141 -10 183 -13 189 -17 4 -3 30 -8 57 -12 27 -3 60 -10 73 -15 13 -5 26
-7 29 -5 2 3 17 -1 33 -10 16 -8 31 -14 34 -14 3 0 6 0 8 -1 1 0 9 -2 17 -4
34 -8 136 -48 198 -78 37 -17 69 -32 72 -32 5 -1 30 -15 117 -72 29 -18 55
-33 58 -33 5 0 14 -6 110 -86 99 -81 173 -157 267 -272 60 -74 213 -335 224
-382 0 -3 3 -12 7 -20 17 -45 50 -137 52 -150 2 -8 4 -17 5 -20 1 -3 3 -9 5
-15 1 -5 3 -12 4 -15 2 -3 4 -14 6 -25 2 -11 11 -54 19 -96 25 -132 37 -287
24 -306 -5 -6 -5 -14 0 -17 4 -2 5 -30 2 -60 -3 -31 -4 -56 -1 -56 4 0 7 -35
7 -78 1 -42 5 -93 9 -112 4 -19 8 -44 10 -55 2 -16 12 -68 20 -105 7 -30 30
-97 37 -105 4 -5 8 -14 8 -21 0 -6 12 -38 27 -70 14 -33 27 -65 29 -72 1 -7 8
-20 15 -29 14 -16 27 -38 54 -89 9 -17 25 -41 35 -52 11 -12 20 -26 20 -31 0
-5 12 -19 26 -30 15 -12 24 -21 20 -21 -14 0 128 -148 183 -190 18 -14 40 -32
49 -40 8 -8 38 -29 66 -47 28 -18 56 -36 61 -40 6 -4 24 -15 40 -23 17 -8 41
-21 55 -30 14 -9 52 -26 85 -39 33 -12 69 -27 80 -32 17 -7 154 -46 170 -48 8
-1 19 -3 30 -5 70 -13 174 -26 210 -27 27 -1 233 11 255 15 102 17 220 45 235
56 6 4 23 10 39 14 15 4 47 15 70 25 22 11 48 22 56 25 24 10 122 66 165 94
166 110 343 292 424 435 10 18 32 55 48 82 16 28 30 53 32 57 1 4 11 29 22 55
12 27 23 55 25 63 2 8 15 51 28 95 34 112 48 197 50 302 0 35 3 63 6 63 3 0 4
21 2 47 -7 128 -8 169 -4 176 2 5 6 39 7 75 3 63 7 92 20 152 3 14 7 36 9 50
2 14 11 51 21 82 9 32 16 59 16 60 -1 2 13 39 29 83 17 44 32 85 33 90 1 6 5
12 8 15 4 3 16 28 29 55 21 48 54 105 109 190 14 22 28 42 31 45 3 3 17 21 30
40 95 136 295 317 460 415 36 21 67 43 68 47 2 4 10 8 17 8 8 0 30 9 49 21 20
12 36 17 36 12 0 -4 4 -3 8 2 4 6 27 19 52 29 25 10 54 22 65 27 11 5 29 11
40 13 11 2 42 12 69 21 26 9 58 18 70 21 11 2 32 6 46 9 66 14 124 23 196 31
26 2 50 7 53 9 2 3 10 0 18 -6 7 -6 13 -7 13 -3 0 11 100 12 117 1 6 -4 14 -3
18 2 3 6 13 7 22 4 19 -8 115 -8 129 -1 8 4 149 2 149 -2 0 -1 18 -3 40 -4 53
-4 146 -16 167 -22 9 -3 27 -7 40 -9 13 -3 37 -8 53 -12 17 -4 33 -7 37 -7 3
-1 10 -4 14 -8 4 -5 18 -8 30 -8 13 0 26 -5 29 -10 4 -6 10 -8 15 -5 5 3 11 1
15 -5 3 -5 15 -10 26 -10 10 0 27 -4 37 -10 9 -5 53 -26 97 -46 44 -20 108
-54 143 -75 35 -22 68 -39 72 -39 5 0 10 -3 12 -8 2 -4 28 -25 58 -47 114 -82
219 -185 332 -323 71 -88 238 -383 238 -422 0 -6 4 -18 10 -28 15 -26 51 -154
71 -247 15 -73 22 -134 23 -187 1 -27 3 -48 6 -48 3 0 4 -35 3 -77 -6 -161 1
-299 19 -383 6 -30 12 -59 12 -65 3 -28 30 -122 39 -132 5 -7 7 -13 3 -13 -4
0 0 -13 9 -30 8 -16 15 -32 15 -35 0 -3 6 -21 14 -40 9 -20 15 -36 14 -38 0
-1 14 -26 31 -55 17 -29 31 -55 31 -58 0 -2 16 -27 35 -54 19 -27 35 -52 35
-55 0 -3 10 -17 23 -29 12 -13 33 -39 47 -56 42 -56 158 -166 220 -210 19 -14
43 -33 54 -42 11 -10 26 -18 33 -18 7 0 13 -4 13 -9 0 -6 55 -37 123 -70 116
-56 235 -100 322 -117 51 -10 55 -11 58 -14 4 -3 57 -8 157 -15 52 -3 106 -7
120 -8 14 -2 30 -1 35 2 6 3 28 6 50 7 46 2 121 12 150 21 11 3 31 7 45 8 33
3 239 73 268 91 12 8 22 12 22 9 0 -2 24 10 53 27 28 17 66 39 83 49 114 64
256 191 361 321 60 75 151 220 159 255 4 13 10 23 15 23 5 0 9 8 9 18 1 9 9
35 20 57 11 22 19 47 20 55 0 9 4 20 9 25 7 9 16 38 38 130 2 11 6 31 8 45 2
14 6 39 9 55 7 38 19 243 16 270 -7 70 1 233 14 302 3 11 7 38 10 59 4 22 8
46 11 54 2 8 6 26 9 40 9 52 71 228 107 307 22 45 39 86 39 92 0 5 4 11 8 13
4 2 26 32 47 68 98 165 280 366 415 460 19 13 37 27 40 30 5 5 45 31 127 83
84 53 352 167 392 167 5 0 22 5 38 11 15 6 42 13 58 14 17 2 41 6 55 9 50 12
86 17 155 22 63 5 112 6 255 4 210 -3 426 45 623 137 42 20 77 40 77 45 0 5 4
7 8 4 9 -5 135 79 208 139 97 80 274 282 274 314 0 6 4 11 9 11 14 0 116 214
147 305 14 44 28 87 31 95 3 8 7 24 8 35 2 11 5 29 8 41 21 85 30 380 14 469
-4 22 -10 51 -12 65 -8 44 -23 105 -25 105 -1 0 -4 13 -6 28 -5 31 -33 104
-66 176 -12 25 -23 51 -24 56 -3 17 -105 180 -115 183 -5 2 -9 8 -9 14 0 5 -6
15 -12 22 -7 7 -22 25 -33 40 -65 90 -314 306 -353 306 -6 0 -12 4 -14 8 -4
11 -108 65 -178 92 -30 12 -64 26 -75 30 -26 11 -96 33 -114 36 -7 2 -34 7
-60 13 -25 6 -64 14 -86 17 -58 9 -341 9 -400 0 -27 -4 -61 -9 -75 -11 -14 -2
-25 -4 -25 -5 0 -1 -7 -3 -15 -5 -8 -2 -33 -9 -55 -15 -22 -6 -44 -12 -50 -13
-45 -12 -96 -32 -127 -48 -21 -11 -40 -20 -42 -20 -22 -2 -46 -13 -46 -22 0
-6 -3 -7 -6 -4 -4 4 -19 -2 -34 -13 -16 -11 -33 -20 -39 -20 -6 0 -11 -5 -11
-12 0 -6 -3 -9 -6 -5 -3 3 -11 2 -18 -4 -6 -5 -47 -35 -91 -67 -44 -33 -105
-83 -136 -113 -69 -67 -178 -202 -215 -266 -15 -26 -31 -50 -34 -53 -6 -5 -69
-141 -94 -204 -15 -36 -43 -133 -52 -181 -2 -11 -7 -33 -10 -50 -8 -36 -13
-79 -18 -162 -2 -34 -7 -66 -11 -72 -3 -6 -1 -11 5 -11 7 0 8 -6 1 -18 -6 -11
-6 -24 -1 -32 5 -9 5 -19 -2 -27 -6 -7 -6 -13 -2 -13 5 0 9 -31 9 -70 0 -38
-2 -70 -5 -70 -3 0 -5 -21 -6 -48 -1 -58 -11 -133 -24 -189 -26 -112 -37 -154
-41 -163 -1 -3 -3 -9 -4 -15 -1 -5 -6 -19 -10 -30 -5 -11 -17 -42 -27 -70 -29
-75 -131 -275 -140 -275 -4 0 -8 -5 -8 -11 0 -6 -8 -21 -17 -34 -10 -12 -25
-33 -33 -45 -8 -12 -19 -28 -25 -34 -5 -6 -28 -33 -50 -61 -93 -115 -304 -302
-381 -337 -13 -6 -24 -15 -24 -20 0 -4 -5 -8 -10 -8 -6 0 -28 -11 -50 -25 -22
-14 -40 -22 -40 -18 0 5 -5 1 -10 -7 -5 -8 -13 -15 -17 -15 -4 -1 -30 -11 -58
-24 -27 -12 -54 -24 -60 -25 -5 -2 -32 -13 -58 -24 -27 -12 -53 -22 -57 -22
-5 0 -29 -6 -52 -14 -24 -8 -54 -17 -68 -19 -14 -2 -32 -7 -40 -10 -64 -25
-373 -52 -397 -35 -6 5 -14 5 -18 -2 -3 -6 -11 -7 -17 -4 -13 8 -138 8 -146 0
-3 -3 -11 -1 -19 5 -7 6 -13 7 -13 2 0 -16 -221 2 -340 29 -25 5 -55 10 -67
11 -13 1 -23 6 -23 10 0 4 -6 7 -12 6 -7 -1 -20 0 -28 3 -8 3 -44 16 -80 28
-84 28 -89 30 -195 81 -49 24 -91 47 -93 52 -2 4 -8 7 -13 7 -10 0 -143 87
-181 119 -152 123 -215 190 -363 386 -44 58 -167 295 -180 345 0 3 -9 30 -20
60 -11 30 -20 58 -21 63 -1 4 -3 10 -4 15 -1 4 -3 12 -5 17 -1 6 -3 12 -4 15
-3 7 -8 26 -21 90 -29 145 -35 238 -30 435 2 94 -14 249 -34 333 -4 12 -8 30
-10 40 -11 48 -30 108 -38 117 -4 5 -8 16 -8 24 0 19 -99 225 -111 229 -5 2
-9 8 -9 14 0 13 -74 117 -126 178 -50 58 -109 116 -163 160 -24 19 -55 45 -69
57 -15 13 -33 23 -39 23 -7 0 -13 5 -13 10 0 6 -10 15 -22 20 -13 6 -41 21
-63 33 -70 40 -99 55 -146 76 -53 23 -154 58 -190 65 -13 3 -33 7 -44 9 -110
25 -171 31 -305 31 -154 0 -221 -5 -292 -23 -21 -5 -38 -7 -38 -4 0 3 -7 0
-15 -7 -8 -7 -15 -10 -15 -6 0 3 -15 0 -32 -7 -18 -8 -36 -14 -41 -15 -27 -4
-95 -28 -113 -39 -12 -8 -32 -16 -45 -18 -12 -3 -25 -8 -28 -12 -3 -5 -33 -21
-66 -38 -33 -16 -64 -33 -70 -37 -5 -4 -46 -34 -90 -66 -44 -33 -105 -83 -136
-113 -70 -68 -178 -202 -215 -266 -15 -26 -33 -55 -40 -63 -7 -8 -14 -19 -15
-25 -4 -19 -34 -80 -41 -83 -5 -2 -8 -12 -8 -21 0 -10 -3 -21 -8 -25 -4 -4 -7
-11 -7 -14 -1 -4 -13 -43 -27 -87 -26 -79 -39 -131 -44 -170 -2 -11 -5 -36 -9
-55 -3 -19 -7 -63 -9 -96 -2 -34 -7 -67 -10 -73 -4 -6 -3 -11 3 -11 5 0 6 -11
2 -27 -4 -16 -4 -43 0 -60 4 -21 3 -33 -3 -33 -7 0 -7 -4 -1 -12 12 -16 6
-146 -12 -266 -12 -80 -53 -241 -75 -297 -4 -11 -20 -51 -36 -90 -29 -74 -108
-229 -124 -245 -3 -3 -18 -25 -34 -50 -74 -115 -210 -266 -321 -355 -28 -22
-55 -44 -61 -50 -6 -5 -22 -17 -34 -25 -12 -8 -33 -23 -45 -32 -13 -10 -28
-18 -34 -18 -6 0 -11 -4 -11 -8 0 -9 -211 -117 -222 -114 -5 1 -8 -2 -8 -6 0
-5 -6 -9 -12 -10 -7 -1 -58 -17 -113 -37 -55 -19 -116 -38 -135 -41 -19 -3
-48 -9 -65 -14 -35 -10 -112 -21 -175 -26 -25 -1 -45 -4 -45 -4 0 -7 -98 -4
-101 2 -3 5 -11 5 -17 1 -10 -6 -44 -8 -64 -3 -10 2 -145 0 -208 -3 -27 -2
-54 -1 -59 1 -5 3 -36 7 -70 9 -33 2 -70 5 -81 7 -11 1 -42 7 -70 11 -27 5
-53 9 -57 10 -3 0 -10 3 -14 8 -4 4 -16 7 -27 7 -44 0 -248 77 -364 137 -195
101 -392 260 -518 418 -22 28 -43 52 -46 55 -33 26 -174 275 -219 385 -23 57
-43 113 -47 135 -2 13 -9 30 -15 37 -6 7 -8 13 -5 13 3 0 0 21 -7 48 -20 70
-39 179 -41 234 -1 27 -5 51 -8 55 -4 3 -2 14 4 24 5 11 6 19 1 19 -9 0 -7
158 2 167 3 3 1 16 -5 30 -6 17 -6 22 3 17 7 -5 8 -3 3 5 -4 7 -9 43 -11 79
-2 37 -6 78 -9 92 -3 14 -8 45 -11 70 -3 25 -8 48 -11 53 -2 4 -7 19 -9 34 -7
40 -41 135 -69 197 -14 30 -25 59 -25 65 0 5 -6 16 -12 23 -7 7 -24 33 -37 58
-86 160 -265 352 -437 468 -140 93 -363 184 -515 208 -24 3 -55 9 -69 11 -31
6 -316 13 -321 9z"/>
<path d="M1367 9203 c-4 -3 -33 -7 -64 -9 -77 -5 -122 -10 -158 -18 -16 -3
-39 -8 -50 -10 -305 -59 -622 -265 -817 -531 -32 -44 -62 -84 -66 -90 -4 -5
-18 -32 -32 -60 -14 -27 -31 -57 -38 -66 -7 -9 -14 -26 -17 -37 -2 -11 -9 -31
-16 -44 -8 -13 -14 -25 -15 -28 0 -3 -4 -13 -8 -22 -4 -9 -8 -22 -10 -30 -1
-7 -5 -19 -9 -25 -5 -7 -6 -13 -2 -13 3 0 1 -8 -4 -18 -6 -11 -13 -32 -16 -48
-8 -41 -13 -59 -15 -59 -1 0 -3 -11 -5 -25 -2 -14 -7 -47 -11 -75 -4 -27 -8
-120 -8 -205 0 -135 6 -194 31 -305 2 -11 6 -31 9 -44 11 -53 61 -186 93 -251
31 -61 75 -136 82 -138 5 -2 9 -8 9 -14 0 -6 13 -27 30 -48 16 -21 30 -43 30
-50 0 -6 4 -8 10 -5 5 3 10 0 10 -7 0 -15 138 -159 188 -198 18 -14 45 -35 60
-48 15 -13 47 -35 72 -50 25 -14 47 -29 50 -32 3 -3 19 -12 35 -20 17 -8 41
-21 55 -30 14 -9 52 -26 85 -39 33 -12 69 -27 80 -32 17 -7 143 -43 168 -48 4
0 8 -1 10 -2 13 -4 142 -21 188 -23 20 -2 42 -6 49 -11 9 -6 11 -4 5 5 -5 9
-4 11 4 6 14 -9 131 -14 131 -5 0 13 282 -8 339 -25 9 -3 30 -8 46 -11 57 -10
73 -13 121 -30 27 -9 56 -18 64 -20 18 -4 111 -40 160 -62 49 -22 221 -118
245 -137 11 -9 52 -40 90 -68 69 -51 273 -248 258 -248 -5 0 -3 -4 3 -8 6 -4
30 -34 55 -67 24 -33 47 -61 52 -63 4 -2 7 -8 7 -14 0 -5 8 -22 19 -36 39 -57
124 -231 160 -332 19 -51 49 -164 56 -205 2 -11 4 -20 5 -20 4 0 21 -118 25
-173 1 -17 4 -34 6 -36 4 -4 2 -195 -2 -206 -1 -3 -1 -9 0 -13 1 -4 3 -51 6
-105 2 -53 7 -108 10 -122 3 -14 7 -41 10 -60 3 -19 9 -50 14 -68 5 -18 10
-35 10 -37 1 -16 26 -92 33 -100 4 -5 8 -14 8 -21 0 -6 10 -33 22 -60 12 -27
23 -51 23 -54 2 -10 58 -115 64 -120 3 -3 12 -17 20 -32 8 -15 22 -37 33 -47
10 -11 18 -25 18 -30 0 -6 9 -16 20 -23 11 -7 20 -17 20 -22 0 -14 107 -126
181 -188 24 -21 51 -43 59 -51 8 -7 33 -24 55 -38 22 -14 58 -38 81 -52 22
-15 43 -27 47 -27 4 0 19 -8 34 -17 23 -15 120 -59 148 -67 6 -2 17 -6 25 -9
23 -10 168 -48 198 -53 15 -2 54 -8 87 -13 64 -10 327 -7 384 4 35 7 154 33
181 39 79 20 360 150 360 167 0 5 5 9 10 9 21 0 138 92 229 180 50 48 145 166
187 232 53 82 114 202 114 223 0 8 5 15 10 15 6 0 9 3 9 8 -1 4 0 9 1 12 1 3
3 12 5 20 3 8 15 51 29 95 34 112 48 197 50 302 0 35 3 63 6 63 3 0 4 21 2 47
-7 128 -8 169 -4 176 2 5 6 39 7 75 3 66 11 121 21 153 2 10 6 30 8 45 2 16
11 55 21 86 9 32 16 59 16 60 -1 3 45 124 75 198 10 25 21 47 24 50 3 3 20 33
38 67 122 234 355 477 592 618 36 21 67 43 68 47 2 4 8 8 13 8 6 0 39 13 74
30 63 29 160 70 180 75 6 1 17 4 25 7 40 14 87 28 110 32 149 32 162 34 249
42 71 7 94 7 181 5 19 0 42 -1 50 0 8 0 51 -1 95 -2 44 -2 85 -1 90 2 9 4 110
4 110 -1 0 -1 25 -4 55 -6 77 -7 92 -9 115 -17 11 -3 38 -8 60 -12 22 -3 58
-11 80 -17 22 -6 43 -12 48 -14 4 -1 8 -2 10 -4 1 -1 9 -3 17 -5 8 -1 51 -17
95 -34 44 -17 85 -31 90 -32 6 -1 21 -9 35 -18 14 -10 41 -25 60 -35 49 -23
215 -129 230 -145 3 -3 28 -24 55 -45 100 -80 305 -305 305 -335 0 -6 4 -11 8
-11 22 0 193 -338 207 -410 2 -8 4 -16 5 -17 2 -2 4 -7 5 -13 1 -5 4 -12 5
-15 1 -3 3 -8 4 -12 2 -5 7 -26 14 -48 20 -73 42 -200 47 -275 2 -30 5 -55 6
-55 6 0 3 -122 -3 -132 -5 -6 -5 -14 1 -17 6 -4 6 -18 1 -34 -4 -16 -4 -36 2
-45 6 -11 5 -17 -2 -17 -6 0 -8 -5 -4 -11 4 -7 8 -37 10 -68 13 -225 69 -398
206 -643 11 -20 25 -40 83 -116 5 -8 20 -25 32 -38 12 -13 20 -24 18 -24 -5 0
79 -84 131 -130 67 -61 268 -199 299 -204 6 -1 31 -12 56 -24 51 -23 140 -59
152 -61 16 -2 63 -13 77 -18 19 -8 37 -12 80 -18 19 -3 49 -8 65 -11 42 -10
319 -11 382 -2 82 12 193 37 214 48 10 6 19 9 19 6 0 -4 84 27 145 54 11 4 27
11 35 14 24 9 121 65 165 94 166 110 343 292 424 435 10 18 33 57 51 87 18 30
32 56 32 57 -1 2 7 22 17 45 10 24 24 61 31 83 7 22 15 47 18 55 8 25 11 34
17 65 3 17 8 37 12 45 3 8 7 24 9 35 1 11 5 38 8 60 8 55 18 201 16 250 -5
163 3 287 26 390 4 17 8 39 9 50 12 97 122 378 192 488 52 82 78 122 83 127 3
3 17 21 30 40 84 120 250 277 410 384 110 75 346 187 420 201 3 1 32 9 65 19
33 10 74 20 90 23 17 2 36 6 43 9 23 7 114 18 164 18 27 1 48 3 48 6 0 3 29 6
65 5 36 0 65 -2 65 -5 0 -3 23 -5 50 -5 28 0 50 2 50 5 0 3 30 6 68 6 82 2
182 14 234 30 9 3 25 7 35 9 36 7 159 48 198 65 22 10 47 21 55 24 24 10 142
79 190 111 159 106 314 273 416 445 27 46 49 86 50 89 0 3 5 17 12 31 100 224
127 355 126 610 -1 173 -21 293 -76 449 -42 120 -153 328 -180 339 -4 2 -8 8
-8 14 0 5 -6 15 -12 22 -7 7 -24 28 -38 46 -116 153 -346 324 -540 400 -30 12
-64 26 -75 30 -26 11 -96 33 -114 36 -7 2 -34 7 -60 13 -94 22 -235 35 -313
29 -21 -2 -38 0 -38 5 0 4 -6 5 -12 0 -7 -4 -26 -8 -43 -9 -16 -1 -52 -5 -80
-9 -27 -3 -61 -8 -75 -10 -14 -2 -25 -4 -25 -5 0 -1 -7 -3 -15 -5 -8 -2 -40
-10 -70 -18 -30 -7 -65 -19 -77 -26 -13 -6 -23 -9 -23 -6 0 3 -10 0 -22 -7
-13 -7 -26 -12 -30 -13 -3 0 -10 -3 -14 -8 -4 -4 -16 -7 -26 -7 -10 0 -18 -4
-18 -10 0 -5 -9 -10 -20 -10 -11 0 -20 -5 -20 -12 0 -6 -3 -9 -6 -5 -3 3 -24
-5 -45 -19 -21 -13 -41 -24 -44 -24 -3 0 -11 -4 -18 -10 -7 -5 -48 -36 -92
-68 -44 -33 -105 -83 -136 -113 -69 -67 -178 -201 -215 -266 -16 -26 -32 -49
-36 -51 -4 -2 -8 -8 -8 -13 0 -4 -18 -45 -39 -89 -22 -44 -37 -80 -35 -80 2 0
-2 -13 -10 -28 -14 -28 -37 -109 -60 -209 -8 -39 -18 -121 -21 -180 -2 -34 -6
-66 -10 -72 -3 -6 -1 -11 5 -11 7 0 8 -6 1 -18 -6 -11 -6 -24 -1 -32 5 -9 5
-19 -2 -27 -6 -7 -6 -13 -2 -13 5 0 9 -31 9 -70 0 -38 -2 -70 -5 -70 -3 0 -5
-21 -6 -48 -1 -51 -10 -130 -20 -177 -3 -16 -7 -35 -8 -42 -1 -7 -5 -16 -9
-19 -4 -4 -7 -16 -7 -26 0 -20 -58 -202 -81 -253 -8 -16 -18 -33 -24 -37 -5
-4 -7 -8 -3 -8 12 0 -99 -202 -114 -208 -4 -2 -8 -8 -8 -13 0 -13 -103 -149
-112 -149 -5 0 -8 -5 -8 -10 0 -18 -185 -196 -254 -245 -15 -11 -33 -24 -40
-30 -24 -21 -75 -55 -82 -55 -4 0 -15 -6 -23 -14 -13 -12 -195 -108 -211 -112
-3 0 -17 -6 -32 -12 -71 -30 -84 -35 -97 -38 -8 -1 -35 -9 -60 -17 -91 -29
-218 -54 -311 -62 -30 -2 -55 -5 -55 -5 0 -1 -37 -3 -82 -4 -46 -1 -83 1 -83
4 0 7 -99 5 -106 -3 -4 -3 -15 -2 -25 4 -11 5 -19 6 -19 2 0 -5 -27 -8 -60 -8
-33 0 -60 4 -60 9 0 4 -6 3 -13 -3 -8 -6 -16 -8 -19 -5 -3 3 -31 7 -62 10 -32
2 -67 6 -79 8 -12 2 -40 7 -62 11 -71 13 -257 65 -265 74 -3 3 -9 6 -15 6 -20
1 -238 106 -243 118 -2 4 -8 7 -13 7 -10 0 -143 87 -181 119 -112 90 -204 180
-273 267 -22 27 -46 55 -52 62 -7 7 -13 17 -13 22 0 5 -6 15 -13 22 -51 51
-209 369 -223 451 -1 4 -2 8 -4 10 -4 5 -24 88 -43 182 -25 120 -39 299 -25
328 6 11 5 17 -2 17 -6 0 -9 4 -6 9 15 24 -1 321 -18 338 -3 3 -6 21 -6 38 0
17 -3 35 -7 39 -4 4 -9 18 -10 32 -5 36 -56 171 -95 251 -132 270 -357 498
-628 634 -36 18 -67 34 -70 34 -3 1 -16 6 -30 12 -41 17 -140 53 -145 53 -3 0
-6 0 -7 1 -11 3 -47 11 -63 14 -11 2 -22 4 -25 6 -9 4 -95 17 -155 23 -22 3
-40 5 -40 6 0 2 -149 2 -155 0 -3 -1 -29 -3 -58 -5 -69 -5 -172 -19 -179 -25
-2 -2 -11 -3 -20 -4 -10 -1 -22 -4 -28 -7 -5 -4 -26 -10 -45 -13 -19 -4 -44
-11 -55 -16 -11 -5 -51 -20 -88 -35 -157 -60 -320 -169 -449 -297 -102 -103
-123 -129 -201 -248 -90 -139 -165 -326 -191 -475 -3 -16 -8 -41 -10 -55 -13
-66 -25 -290 -16 -290 10 0 5 -65 -5 -72 -6 -5 -6 -8 1 -8 7 0 10 -13 8 -32
-1 -18 -5 -67 -9 -108 -3 -41 -7 -82 -10 -90 -6 -22 -18 -82 -20 -106 -1 -11
-5 -25 -9 -32 -4 -7 -5 -12 -1 -12 3 0 -1 -16 -9 -35 -8 -19 -13 -35 -10 -35
2 0 -2 -10 -11 -23 -8 -13 -13 -26 -10 -29 3 -3 -2 -22 -11 -44 -9 -21 -21
-50 -27 -64 -6 -14 -11 -27 -11 -30 -5 -21 -112 -220 -118 -220 -4 0 -8 -5 -8
-11 0 -6 -8 -21 -17 -34 -10 -12 -25 -33 -33 -45 -8 -12 -20 -28 -25 -34 -6
-6 -26 -31 -45 -56 -78 -100 -264 -269 -365 -330 -22 -13 -42 -26 -45 -29 -3
-4 -23 -16 -45 -28 -22 -11 -56 -30 -75 -40 -38 -21 -179 -84 -195 -88 -5 -1
-17 -5 -25 -8 -16 -6 -113 -33 -170 -47 -81 -21 -106 -25 -207 -34 -23 -2 -46
-7 -52 -10 -5 -4 -12 -2 -16 4 -4 6 -12 7 -18 3 -16 -10 -127 -10 -127 0 0 4
-9 3 -19 -3 -11 -5 -22 -6 -25 -2 -5 9 -71 7 -86 -3 -6 -3 -10 -1 -10 5 0 6
-4 8 -10 5 -17 -10 -100 -12 -100 -2 0 6 -5 6 -12 0 -7 -6 -22 -9 -33 -6 -11
2 -38 5 -60 7 -74 7 -160 18 -166 22 -3 2 -21 6 -40 9 -19 3 -52 11 -74 17
-22 6 -43 12 -47 14 -5 1 -10 3 -13 4 -3 1 -9 4 -15 5 -5 1 -11 3 -12 5 -2 1
-10 3 -18 5 -25 4 -173 67 -195 82 -11 7 -25 13 -33 13 -7 0 -18 5 -25 10 -7
6 -53 36 -104 68 -99 62 -126 81 -181 127 -43 37 -166 159 -207 205 -39 45
-155 207 -163 229 -3 9 -8 18 -12 21 -18 15 -134 278 -145 330 -2 8 -4 15 -5
15 -1 0 -3 7 -5 15 -2 8 -9 35 -16 60 -6 25 -13 54 -15 65 -5 29 -12 60 -14
60 -2 0 -7 42 -14 118 -3 32 -8 62 -11 68 -4 5 -1 9 5 9 6 0 8 5 4 12 -9 15
-13 128 -4 128 4 0 3 43 -3 110 -1 14 2 31 7 38 4 6 5 12 0 12 -5 0 -10 26
-12 57 -6 129 -70 353 -140 488 -38 75 -100 177 -112 185 -4 3 -9 10 -11 17
-11 30 -154 183 -229 243 -24 19 -51 43 -62 53 -10 9 -21 17 -25 17 -3 0 -15
7 -25 17 -22 19 -40 30 -136 79 -40 20 -75 41 -78 46 -3 4 -10 6 -15 3 -5 -4
-9 -1 -9 4 0 6 -3 10 -7 9 -5 -1 -44 10 -88 24 -85 29 -157 49 -190 54 -66 10
-110 14 -188 19 -48 2 -91 7 -96 9 -4 3 -11 3 -14 -1z"/>
</g>
</svg>
