<svg id="svg" xmlns="http://www.w3.org/2000/svg" viewBox="0 0 390 230"><path d="M35,0h0A35,35,0,0,1,70,35h0A35,35,0,0,1,35,70h0A35,35,0,0,1,0,35H0A35,35,0,0,1,35,0Z" style="fill:rgb(0, 25, 154)"/><path d="M115,80h0a35,35,0,0,1,35,35h0a35,35,0,0,1-35,35h0a35,35,0,0,1-35-35h0A35,35,0,0,1,115,80Z" style="fill:rgb(0, 25, 154)"/><path d="M70,35,35,70a42.07,42.07,0,0,1,45,38.93A41,41,0,0,1,80,115l35-35A42.07,42.07,0,0,1,70,41.07,41,41,0,0,1,70,35Z" style="fill:rgb(0, 25, 154)"/><path d="M195,0h0a35,35,0,0,1,35,35h0a35,35,0,0,1-35,35h0a35,35,0,0,1-35-35h0A35,35,0,0,1,195,0Z" style="fill:rgb(0, 25, 154)"/><path d="M115,80l35,35a42.07,42.07,0,0,1,38.93-45A41,41,0,0,1,195,70L160,35a42.07,42.07,0,0,1-38.93,45A41,41,0,0,1,115,80Z" style="fill:rgb(0, 25, 154)"/><path d="M275,80h0a35,35,0,0,1,35,35h0a35,35,0,0,1-35,35h0a35,35,0,0,1-35-35h0A35,35,0,0,1,275,80Z" style="fill:rgb(0, 25, 154)"/><path d="M230,35,195,70a42.07,42.07,0,0,1,45,38.93,41,41,0,0,1,0,6.07l35-35a42.07,42.07,0,0,1-45-38.93A41,41,0,0,1,230,35Z" style="fill:rgb(0, 25, 154)"/><path d="M355,0h0a35,35,0,0,1,35,35h0a35,35,0,0,1-35,35h0a35,35,0,0,1-35-35h0A35,35,0,0,1,355,0Z" style="fill:rgb(0, 25, 154)"/><path d="M275,80l35,35a42.07,42.07,0,0,1,38.93-45A41,41,0,0,1,355,70L320,35a42.07,42.07,0,0,1-38.93,45A41,41,0,0,1,275,80Z" style="fill:rgb(0, 25, 154)"/><path d="M35,80h0a35,35,0,0,1,35,35h0a35,35,0,0,1-35,35h0A35,35,0,0,1,0,115H0A35,35,0,0,1,35,80Z" style="fill:rgb(0, 25, 154)"/><path d="M115,160h0a35,35,0,0,1,35,35h0a35,35,0,0,1-35,35h0a35,35,0,0,1-35-35h0A35,35,0,0,1,115,160Z" style="fill:rgb(0, 25, 154)"/><path d="M70,115,35,150a42.07,42.07,0,0,1,45,38.93A41,41,0,0,1,80,195l35-35a42.07,42.07,0,0,1-45-38.93A41,41,0,0,1,70,115Z" style="fill:rgb(0, 25, 154)"/><path d="M195,80h0a35,35,0,0,1,35,35h0a35,35,0,0,1-35,35h0a35,35,0,0,1-35-35h0A35,35,0,0,1,195,80Z" style="fill:rgb(0, 25, 154)"/><path d="M115,160l35,35a42.07,42.07,0,0,1,38.93-45,41,41,0,0,1,6.07,0l-35-35a42.07,42.07,0,0,1-38.93,45A41,41,0,0,1,115,160Z" style="fill:rgb(0, 25, 154)"/><path d="M195,80h0a35,35,0,0,1,35,35h0a35,35,0,0,1-35,35h0a35,35,0,0,1-35-35h0A35,35,0,0,1,195,80Z" style="fill:rgb(0, 25, 154)"/><path d="M275,160h0a35,35,0,0,1,35,35h0a35,35,0,0,1-35,35h0a35,35,0,0,1-35-35h0A35,35,0,0,1,275,160Z" style="fill:rgb(0, 25, 154)"/><path d="M230,115l-35,35a42.07,42.07,0,0,1,45,38.93,41,41,0,0,1,0,6.07l35-35a42.07,42.07,0,0,1-45-38.93A41,41,0,0,1,230,115Z" style="fill:rgb(0, 25, 154)"/><path d="M355,80h0a35,35,0,0,1,35,35h0a35,35,0,0,1-35,35h0a35,35,0,0,1-35-35h0A35,35,0,0,1,355,80Z" style="fill:rgb(0, 25, 154)"/><path d="M275,160l35,35a42.07,42.07,0,0,1,38.93-45,41,41,0,0,1,6.07,0l-35-35a42.07,42.07,0,0,1-38.93,45A41,41,0,0,1,275,160Z" style="fill:rgb(0, 25, 154)"/></svg>